# xmcd
#
# Track frame offsets:
#	150
#	12872
#	24299
#	37348
#	48370
#	59793
#	75207
#	94208
#	106946
#	122692
#	136121
#	146544
#	157108
#	171581
# Disc length: 2536 seconds
# Revision: 1
# Processed by: cddbd v1.5.2PL0 Copyright (c) Steve Scherf et al.
#
# Submitted via: libkcddb 0.31
#
DISCID=ba09e60e
DTITLE=Uncle Monk - Uncle Monk
DYEAR=2006
DGENRE=Bluegrass
TTITLE0=Round The Bend
TTITLE1=Emotional Needs
TTITLE2=Happy Tune
TTITLE3=Home Sweet Reality
TTITLE4=Mean To Me
TTITLE5=Airday
TTITLE6=Need A Life
TTITLE7=Heaven
TTITLE8=Name Of The Game
TTITLE9=Mr. Endicott
TTITLE10=Urban Renewal
TTITLE11=Walking Bandit
TTITLE12=Bright Fluorescent
TTITLE13=Wishing At The Moon
EXTD=
EXTT0=
EXTT1=
EXTT2=
EXTT3=
EXTT4=
EXTT5=
EXTT6=
EXTT7=
EXTT8=
EXTT9=
EXTT10=
EXTT11=
EXTT12=
EXTT13=
PLAYORDER=
